<?xml version="1.0" encoding="UTF-8"?>
<svg width="40px" height="29px" viewBox="0 0 40 29" version="1.1" xmlns="http://www.w3.org/2000/svg" xmlns:xlink="http://www.w3.org/1999/xlink">
    <!-- Generator: sketchtool 61.1 (101010) - https://sketch.com -->
    <title>5939182C-AFA7-4039-A615-2FB021D6B17D</title>
    <desc>Created with sketchtool.</desc>
    <g id="Page-1" stroke="none" stroke-width="1" fill="none" fill-rule="evenodd">
        <g id="login-register-component" transform="translate(-132.000000, -241.000000)">
            <g id="Group" transform="translate(132.000000, 241.000000)">
                <g id="Logo">
                    <path d="M12,17 L12,29 L0,29 L0,17 L12,17 Z M12,0 L12,13 L0,13 L0,0 L12,0 Z" id="Combined-Shape" fill="#E85120"></path>
                    <path d="M19,17 L19,29 L14,29 L14,17 L19,17 Z M31,17 L31,29 L27,29 L27,17 L31,17 Z M25,17 L25,29 L21,29 L21,17 L25,17 Z M36,17 L36,29 L33,29 L33,17 L36,17 Z M40,17 L40,29 L38,29 L38,17 L40,17 Z M19,0 L19,13 L14,13 L14,0 L19,0 Z M25,0 L25,13 L21,13 L21,0 L25,0 Z M31,0 L31,13 L27,13 L27,0 L31,0 Z M36,0 L36,13 L33,13 L33,0 L36,0 Z M40,0 L40,13 L38,13 L38,0 L40,0 Z" id="Combined-Shape" fill="#2281BF"></path>
                </g>
            </g>
        </g>
    </g>
</svg>